<?xml version="1.0" encoding="UTF-8" ?>
<!DOCTYPE svg PUBLIC "-//W3C//DTD SVG 1.1//EN" "http://www.w3.org/Graphics/SVG/1.1/DTD/svg11.dtd">
<svg width="500pt" height="500pt" viewBox="0 0 500 500" version="1.1" xmlns="http://www.w3.org/2000/svg">
<g id="#ffffffff">
</g>
<g id="#000000ff">
<path fill="#000000" opacity="1.00" d=" M 132.73 101.82 C 154.94 109.12 176.97 117.04 199.02 124.83 C 194.15 117.23 189.54 109.47 184.79 101.80 C 206.68 108.68 228.13 117.02 249.96 124.09 C 271.72 117.03 293.20 108.96 314.96 101.84 C 316.33 102.36 314.87 103.25 314.25 103.65 C 309.88 110.69 305.64 117.82 301.21 124.82 C 323.30 117.11 345.29 108.95 367.59 101.93 C 337.33 151.41 306.74 200.69 276.30 250.06 C 267.49 236.11 258.91 222.02 250.26 207.97 C 244.55 199.15 239.47 189.91 233.45 181.30 C 223.36 163.68 212.17 146.63 201.67 129.23 C 197.01 131.99 192.20 134.48 187.64 137.40 C 199.90 157.25 211.81 177.32 223.97 197.23 C 226.11 193.68 228.36 190.19 230.31 186.52 C 236.18 195.10 241.04 204.32 246.97 212.85 C 239.23 225.20 231.72 237.71 223.99 250.07 C 195.05 203.46 166.35 156.71 137.54 110.03 C 135.93 107.30 134.08 104.70 132.73 101.82 M 270.04 175.54 C 263.90 167.02 259.18 157.52 253.28 148.82 C 255.72 145.02 257.97 141.11 260.28 137.23 C 256.78 135.45 253.44 133.39 250.00 131.52 C 246.63 133.40 243.29 135.33 239.94 137.25 C 243.31 142.78 246.62 148.34 250.01 153.85 C 255.55 163.12 261.21 172.31 266.75 181.58 C 270.01 186.73 272.92 192.12 276.37 197.14 C 288.37 177.14 300.52 157.23 312.58 137.26 C 307.90 134.57 303.21 131.90 298.53 129.21 C 289.09 144.69 279.36 159.99 270.04 175.54 Z" />
<path fill="#000000" opacity="1.00" d=" M 71.40 322.08 C 199.14 321.92 326.89 321.98 454.64 322.06 C 454.57 338.69 454.58 355.32 454.64 371.95 C 326.89 372.01 199.14 372.08 71.40 371.91 C 71.51 355.30 71.50 338.69 71.40 322.08 M 323.44 325.64 C 322.84 339.88 321.93 354.11 321.28 368.36 C 325.35 368.34 329.41 368.35 333.48 368.35 C 333.53 362.19 333.82 356.03 333.68 349.88 C 335.70 355.77 337.32 361.79 339.24 367.71 C 342.68 367.71 346.12 367.70 349.57 367.74 C 351.46 361.88 353.13 355.95 355.03 350.09 C 355.22 356.17 355.24 362.26 355.36 368.35 C 359.36 368.35 363.37 368.34 367.38 368.35 C 366.96 354.10 365.99 339.87 365.38 325.63 C 360.59 325.86 355.59 325.21 350.92 325.91 C 348.53 332.55 346.80 339.43 344.26 346.01 C 342.24 339.19 339.99 332.44 337.89 325.64 C 333.07 325.63 328.25 325.63 323.44 325.64 M 100.31 325.64 C 102.52 340.03 106.47 354.10 109.44 368.35 C 113.67 368.31 117.90 368.43 122.13 368.27 C 123.48 362.12 125.04 356.01 126.45 349.86 C 128.01 355.97 129.42 362.11 130.81 368.26 C 135.05 368.45 139.29 368.30 143.53 368.35 C 146.51 354.10 150.39 340.01 152.74 325.64 C 148.34 325.63 143.94 325.64 139.54 325.64 C 138.60 332.17 137.36 338.67 136.50 345.22 C 134.84 338.73 133.52 332.16 132.00 325.63 C 128.33 325.82 124.52 325.27 120.94 325.90 C 119.34 332.30 118.05 338.79 116.47 345.20 C 115.53 338.67 114.38 332.17 113.43 325.64 C 109.06 325.63 104.68 325.63 100.31 325.64 M 156.18 368.28 C 166.38 368.44 176.58 368.31 186.78 368.35 C 186.77 364.52 186.78 360.69 186.78 356.86 C 180.82 356.88 174.87 356.87 168.92 356.87 C 168.92 355.57 168.92 354.29 168.92 353.00 C 174.43 353.00 179.93 353.00 185.43 353.00 C 185.43 349.00 185.43 345.00 185.43 341.00 C 179.93 341.00 174.43 341.00 168.93 341.00 C 168.92 340.06 168.92 338.18 168.91 337.24 C 174.59 337.24 180.26 337.23 185.93 337.24 C 185.93 333.37 185.93 329.50 185.93 325.63 C 176.07 325.59 166.21 325.73 156.34 325.56 C 156.08 339.80 156.40 354.04 156.18 368.28 M 190.72 325.64 C 190.72 339.87 190.72 354.11 190.72 368.35 C 199.78 367.84 209.26 369.69 217.99 366.62 C 226.49 363.54 227.66 350.20 219.95 345.56 C 226.27 340.87 224.72 329.43 217.00 327.09 C 208.50 324.62 199.46 326.00 190.72 325.64 M 242.26 368.35 C 246.46 368.37 250.66 368.29 254.87 368.41 C 254.97 364.48 254.89 360.56 254.94 356.63 C 255.47 356.67 256.53 356.74 257.06 356.78 C 259.12 360.55 260.82 364.51 262.76 368.35 C 267.53 368.34 272.29 368.37 277.06 368.32 C 275.81 363.17 272.40 358.86 270.24 354.06 C 277.91 348.38 277.87 334.65 270.53 328.70 C 262.05 323.64 251.68 326.41 242.35 325.56 C 242.13 339.82 242.31 354.09 242.26 368.35 M 279.52 368.34 C 283.80 368.36 288.09 368.35 292.38 368.34 C 292.79 366.48 293.26 364.64 293.74 362.80 C 297.10 362.81 300.47 362.81 303.83 362.81 C 304.25 364.66 304.71 366.52 305.21 368.36 C 309.52 368.33 313.84 368.36 318.15 368.34 C 314.57 353.95 309.73 339.86 305.56 325.61 C 301.02 325.86 296.33 325.22 291.90 325.93 C 287.82 340.07 282.85 354.01 279.52 368.34 M 371.68 325.65 C 371.69 339.88 371.69 354.11 371.68 368.34 C 375.92 368.35 380.17 368.35 384.41 368.35 C 384.41 354.11 384.43 339.87 384.40 325.63 C 380.16 325.64 375.92 325.62 371.68 325.65 M 389.47 368.35 C 393.49 368.35 397.52 368.35 401.55 368.35 C 401.53 360.83 401.60 353.31 401.51 345.79 C 405.19 353.35 409.02 360.83 412.76 368.35 C 416.81 368.35 420.85 368.34 424.90 368.35 C 424.90 354.11 424.90 339.87 424.90 325.63 C 420.93 325.64 416.97 325.63 413.00 325.64 C 412.89 332.42 413.24 339.23 412.78 346.01 C 409.81 339.05 406.03 332.48 402.77 325.66 C 398.33 325.61 393.90 325.64 389.47 325.64 C 389.46 339.87 389.46 354.11 389.47 368.35 Z" />
<path fill="#000000" opacity="1.00" d=" M 203.34 337.04 C 205.98 337.40 210.33 335.73 211.55 339.00 C 210.40 342.37 206.00 340.59 203.36 340.98 C 203.35 339.66 203.35 338.35 203.34 337.04 Z" />
<path fill="#000000" opacity="1.00" d=" M 254.94 337.46 C 257.19 337.51 259.52 337.21 261.70 337.93 C 263.76 339.22 263.80 342.73 261.85 344.13 C 259.67 345.02 257.23 344.89 254.92 345.05 C 254.92 342.52 254.92 339.99 254.94 337.46 Z" />
<path fill="#000000" opacity="1.00" d=" M 298.76 342.90 C 299.48 345.85 300.25 348.78 301.00 351.73 C 299.88 351.72 297.64 351.69 296.52 351.67 C 297.33 348.76 298.08 345.84 298.76 342.90 Z" />
<path fill="#000000" opacity="1.00" d=" M 203.35 352.73 C 206.28 352.76 209.22 352.70 212.14 352.99 C 214.49 358.62 206.47 356.73 203.37 357.00 C 203.36 355.57 203.36 354.15 203.35 352.73 Z" />
</g>
<g id="#1a1c33ff">
<path fill="#1a1c33" opacity="1.00" d=" M 250.01 153.85 C 251.11 152.17 252.15 150.47 253.28 148.82 C 259.18 157.52 263.90 167.02 270.04 175.54 C 268.97 177.57 267.57 179.43 266.75 181.58 C 261.21 172.31 255.55 163.12 250.01 153.85 Z" />
<path fill="#1a1c33" opacity="1.00" d=" M 233.45 181.30 C 239.47 189.91 244.55 199.15 250.26 207.97 C 249.17 209.60 248.15 211.28 246.97 212.85 C 241.04 204.32 236.18 195.10 230.31 186.52 C 231.28 184.74 232.37 183.02 233.45 181.30 Z" />
</g>
</svg>
