<?xml version="1.0" encoding="UTF-8" ?>
<!DOCTYPE svg PUBLIC "-//W3C//DTD SVG 1.1//EN" "http://www.w3.org/Graphics/SVG/1.1/DTD/svg11.dtd">
<svg width="500pt" height="500pt" viewBox="0 0 500 500" version="1.1" xmlns="http://www.w3.org/2000/svg">
<g id="#cfb5fbff">
</g>
<g id="#c3b1f7ff">
</g>
<g id="#b6acf2ff">
</g>
<g id="#a9a8edff">
</g>
<g id="#9da4e9ff">
</g>
<g id="#909fe4ff">
</g>
<g id="#859be0ff">
</g>
<g id="#7596daff">
</g>
<g id="#1a1c33ff">
<path fill="#1a1c33" opacity="1.00" d=" M 140.86 126.27 C 143.79 127.24 146.72 128.26 149.64 129.29 C 169.92 136.25 190.14 143.38 210.39 150.43 C 223.62 154.86 236.65 160.01 250.01 163.96 C 264.93 159.31 279.59 153.74 294.38 148.67 C 316.00 141.33 337.48 133.59 359.11 126.28 C 351.11 139.13 343.32 152.11 335.23 164.91 C 355.94 157.66 376.66 150.43 397.38 143.19 C 413.66 137.59 429.88 131.80 446.17 126.22 C 438.43 138.83 430.73 151.46 422.95 164.05 C 379.78 234.07 336.68 304.12 293.52 374.15 C 288.99 366.76 284.47 359.36 279.90 351.99 C 269.91 335.85 260.03 319.64 250.02 303.51 C 240.95 288.58 231.78 273.72 222.52 258.91 C 217.88 251.25 213.13 243.66 208.48 236.02 C 195.39 214.88 182.39 193.69 169.38 172.51 C 161.59 177.07 153.75 181.54 145.91 186.01 C 159.76 208.86 173.61 231.72 187.44 254.60 C 193.74 265.08 200.10 275.52 206.43 285.99 C 209.93 280.10 213.58 274.29 216.97 268.33 C 226.69 282.66 235.26 297.73 244.47 312.38 C 231.70 332.90 219.14 353.57 206.44 374.14 C 204.95 371.72 203.46 369.30 201.98 366.87 C 194.97 355.62 188.07 344.30 181.09 333.02 C 167.47 310.94 153.90 288.83 140.28 266.74 C 130.65 251.17 121.07 235.57 111.48 219.97 C 102.58 205.66 93.82 191.27 84.95 176.94 C 76.58 163.40 68.27 149.82 59.96 136.24 C 57.87 132.91 55.84 129.55 53.81 126.18 C 55.99 126.93 58.17 127.70 60.35 128.47 C 86.47 137.59 112.59 146.71 138.71 155.80 C 147.35 158.92 156.07 161.81 164.71 164.92 C 159.94 157.40 155.37 149.75 150.66 142.19 C 147.40 136.88 144.11 131.59 140.86 126.27 M 282.22 251.19 L 282.25 250.21 C 282.34 248.76 281.21 247.62 280.61 246.40 C 271.88 232.84 264.38 218.49 255.22 205.23 C 259.23 198.89 263.01 192.41 266.91 186.00 C 261.31 182.67 255.66 179.41 250.00 176.17 C 244.37 179.49 238.69 182.70 233.05 185.99 C 238.64 195.30 244.30 204.56 249.89 213.86 C 256.41 224.74 262.97 235.59 269.59 246.41 C 272.24 250.59 274.32 255.18 277.72 258.84 L 277.40 259.31 C 282.79 268.19 288.17 277.09 293.52 285.99 C 313.71 252.67 333.85 219.33 354.05 186.02 C 346.27 181.50 338.49 177.00 330.72 172.50 C 314.47 198.67 298.36 224.97 282.22 251.19 Z" />
</g>
<g id="#b7adf2ff">
</g>
<g id="#aca9eeff">
</g>
<g id="#9fa4e9ff">
</g>
<g id="#889ce1ff">
</g>
<g id="#97a2e7ff">
</g>
<g id="#ada9eeff">
</g>
<g id="#0b0c17ff">
<path fill="#0b0c17" opacity="1.00" d=" M 249.89 213.86 C 251.64 210.97 253.39 208.07 255.22 205.23 C 264.38 218.49 271.88 232.84 280.61 246.40 C 281.21 247.62 282.34 248.76 282.25 250.21 L 282.22 251.19 C 280.82 253.79 279.27 256.32 277.72 258.84 C 274.32 255.18 272.24 250.59 269.59 246.41 C 262.97 235.59 256.41 224.74 249.89 213.86 Z" />
<path fill="#0b0c17" opacity="1.00" d=" M 222.52 258.91 C 231.78 273.72 240.95 288.58 250.02 303.51 C 248.24 306.51 246.38 309.46 244.47 312.38 C 235.26 297.73 226.69 282.66 216.97 268.33 C 218.76 265.15 220.68 262.06 222.52 258.91 Z" />
</g>
<g id="#a2a5eaff">
</g>
<g id="#6891d5ff">
</g>
<g id="#93a0e5ff">
</g>
<g id="#94a0e5ff">
</g>
<g id="#7f99deff">
</g>
<g id="#5c8dd1ff">
</g>
<g id="#5089cdff">
</g>
</svg>
