<?xml version="1.0" encoding="UTF-8" ?>
<!DOCTYPE svg PUBLIC "-//W3C//DTD SVG 1.1//EN" "http://www.w3.org/Graphics/SVG/1.1/DTD/svg11.dtd">
<svg width="500pt" height="500pt" viewBox="0 0 500 500" version="1.1" xmlns="http://www.w3.org/2000/svg">
<g id="#cfb5fbff">
</g>
<g id="#c3b1f7ff">
</g>
<g id="#b6acf2ff">
</g>
<g id="#aba9eeff">
</g>
<g id="#a3a6ebff">
</g>
<g id="#99a2e7ff">
</g>
<g id="#8c9ee3ff">
</g>
<g id="#7d98ddff">
</g>
<g id="#ffffffff">
<path fill="#ffffff" opacity="1.00" d=" M 335.25 164.91 C 372.23 151.96 409.25 139.11 446.24 126.19 C 406.74 190.57 366.95 254.77 327.47 319.15 C 316.08 337.44 304.89 355.85 293.51 374.14 C 291.51 370.88 289.50 367.63 287.54 364.36 C 275.06 344.12 262.58 323.89 250.08 303.67 C 240.91 288.62 231.59 273.66 222.40 258.62 C 217.39 250.51 212.38 242.40 207.38 234.29 C 202.05 225.50 196.56 216.81 191.22 208.03 C 183.86 196.22 176.79 184.23 169.19 172.58 C 161.53 177.21 153.72 181.57 145.95 186.00 C 154.39 199.98 162.83 213.96 171.28 227.93 C 177.93 238.71 184.28 249.67 191.01 260.41 C 196.12 268.96 201.23 277.52 206.48 285.99 C 209.96 279.98 213.72 274.14 217.09 268.07 C 226.43 282.75 235.60 297.57 244.44 312.57 C 231.62 332.99 219.14 353.63 206.46 374.14 C 205.62 372.81 204.79 371.47 203.97 370.15 C 197.74 359.92 191.35 349.81 185.16 339.56 C 171.65 317.70 158.20 295.79 144.65 273.95 C 135.08 258.11 125.24 242.43 115.56 226.65 C 106.62 211.95 97.48 197.38 88.50 182.70 C 79.51 168.04 70.45 153.41 61.44 138.76 C 59.06 134.58 56.44 130.54 54.00 126.39 C 57.61 127.51 61.19 128.76 64.76 130.01 C 86.99 137.70 109.16 145.56 131.39 153.28 C 142.52 157.10 153.60 161.10 164.74 164.89 C 159.51 156.64 154.44 148.29 149.31 139.97 C 146.58 135.41 143.71 130.93 140.97 126.38 C 145.95 127.94 150.86 129.74 155.81 131.41 C 169.12 135.94 182.35 140.70 195.64 145.30 C 210.27 150.35 224.85 155.53 239.47 160.58 C 242.98 161.69 246.35 163.32 250.00 163.94 C 252.59 163.53 254.99 162.47 257.45 161.62 C 290.32 150.04 323.33 138.83 356.15 127.13 C 356.88 126.93 358.34 126.53 359.08 126.32 C 351.12 139.17 343.30 152.11 335.25 164.91 M 282.82 250.47 C 273.80 235.23 264.65 220.07 255.37 204.99 C 259.30 198.71 263.10 192.36 266.92 186.01 C 261.30 182.69 255.69 179.39 250.00 176.20 C 244.35 179.46 238.72 182.75 233.06 185.99 C 238.64 195.24 244.16 204.52 249.89 213.67 L 249.74 213.92 C 259.19 228.98 268.30 244.28 277.49 259.51 C 282.91 268.30 288.11 277.23 293.58 285.99 C 313.71 252.64 333.92 219.34 354.03 185.98 C 346.23 181.54 338.50 176.98 330.69 172.55 C 314.73 198.52 298.52 224.34 282.82 250.47 Z" />
</g>
<g id="#b7adf2ff">
</g>
<g id="#ada9efff">
</g>
<g id="#7495daff">
</g>
<g id="#889ce1ff">
</g>
<g id="#97a2e7ff">
</g>
<g id="#ada9eeff">
</g>
<g id="#d9d9d9ff">
<path fill="#d9d9d9" opacity="1.00" d=" M 249.89 213.67 C 251.68 210.76 253.51 207.86 255.37 204.99 C 264.65 220.07 273.80 235.23 282.82 250.47 C 281.06 253.50 279.25 256.49 277.49 259.51 C 268.30 244.28 259.19 228.98 249.74 213.92 L 249.89 213.67 Z" />
<path fill="#d9d9d9" opacity="1.00" d=" M 222.40 258.62 C 231.59 273.66 240.91 288.62 250.08 303.67 C 248.29 306.69 246.40 309.65 244.44 312.57 C 235.60 297.57 226.43 282.75 217.09 268.07 C 218.89 264.94 220.72 261.82 222.40 258.62 Z" />
</g>
<g id="#9ba3e8ff">
</g>
<g id="#6b92d6ff">
</g>
<g id="#a2a5eaff">
</g>
<g id="#94a0e5ff">
</g>
<g id="#608ed3ff">
</g>
<g id="#7f99deff">
</g>
<g id="#568bcfff">
</g>
<g id="#4c87cbff">
</g>
</svg>
