<?xml version="1.0" encoding="UTF-8" ?>
<!DOCTYPE svg PUBLIC "-//W3C//DTD SVG 1.1//EN" "http://www.w3.org/Graphics/SVG/1.1/DTD/svg11.dtd">
<svg width="500pt" height="500pt" viewBox="0 0 500 500" version="1.1" xmlns="http://www.w3.org/2000/svg">
<g id="#cfb5fbff">
<path fill="#cfb5fb" opacity="1.00" d=" M 0.00 0.00 L 102.61 0.00 C 70.76 32.34 38.39 64.19 6.44 96.44 C 4.46 98.34 2.17 99.87 0.00 101.55 L 0.00 0.00 Z" />
</g>
<g id="#c3b1f7ff">
<path fill="#c3b1f7" opacity="1.00" d=" M 102.61 0.00 L 188.14 0.00 C 145.98 43.25 102.58 85.30 60.35 128.47 C 58.17 127.70 55.99 126.93 53.81 126.18 C 55.84 129.55 57.87 132.91 59.96 136.24 C 54.05 140.87 49.11 146.54 43.74 151.75 C 31.59 163.93 19.36 176.04 7.28 188.29 C 5.03 190.54 2.43 192.40 0.00 194.44 L 0.00 101.55 C 2.17 99.87 4.46 98.34 6.44 96.44 C 38.39 64.19 70.76 32.34 102.61 0.00 Z" />
</g>
<g id="#b6acf2ff">
<path fill="#b6acf2" opacity="1.00" d=" M 188.14 0.00 L 281.00 0.00 C 279.24 1.91 277.61 3.93 275.83 5.83 C 237.81 43.81 199.80 81.81 161.82 119.84 C 158.34 123.67 154.49 127.28 149.64 129.29 C 146.72 128.26 143.79 127.24 140.86 126.27 C 144.11 131.59 147.40 136.88 150.66 142.19 C 147.81 147.63 143.11 151.65 138.71 155.80 C 112.59 146.71 86.47 137.59 60.35 128.47 C 102.58 85.30 145.98 43.25 188.14 0.00 Z" />
</g>
<g id="#a9a8edff">
<path fill="#a9a8ed" opacity="1.00" d=" M 281.00 0.00 L 360.61 0.00 C 316.39 43.98 272.39 88.19 228.25 132.26 C 222.29 138.31 216.10 144.14 210.39 150.43 C 190.14 143.38 169.92 136.25 149.64 129.29 C 154.49 127.28 158.34 123.67 161.82 119.84 C 199.80 81.81 237.81 43.81 275.83 5.83 C 277.61 3.93 279.24 1.91 281.00 0.00 Z" />
</g>
<g id="#9da4e9ff">
<path fill="#9da4e9" opacity="1.00" d=" M 360.61 0.00 L 443.04 0.00 C 441.22 1.87 439.54 3.86 437.75 5.76 C 394.12 49.45 350.37 93.04 306.79 136.79 C 303.09 141.23 297.62 143.83 294.38 148.67 C 279.59 153.74 264.93 159.31 250.01 163.96 C 236.65 160.01 223.62 154.86 210.39 150.43 C 216.10 144.14 222.29 138.31 228.25 132.26 C 272.39 88.19 316.39 43.98 360.61 0.00 Z" />
</g>
<g id="#909fe4ff">
<path fill="#909fe4" opacity="1.00" d=" M 443.04 0.00 L 500.00 0.00 L 500.00 40.42 C 498.97 40.33 497.95 40.24 496.94 40.16 C 495.26 42.89 493.52 45.75 490.74 47.51 C 487.32 49.66 485.76 53.72 482.31 55.84 C 479.24 57.85 477.84 61.53 474.75 63.51 C 471.31 65.65 469.77 69.74 466.30 71.85 C 463.23 73.85 461.84 77.54 458.74 79.51 C 455.31 81.65 453.76 85.72 450.31 87.84 C 447.24 89.85 445.84 93.54 442.75 95.51 C 439.31 97.65 437.76 101.72 434.31 103.85 C 431.25 105.86 429.83 109.54 426.74 111.52 C 423.31 113.66 421.76 117.73 418.31 119.84 C 415.24 121.85 413.83 125.53 410.75 127.51 C 407.14 129.76 405.61 134.15 401.80 136.15 C 399.03 137.46 398.32 140.56 397.38 143.19 C 376.66 150.43 355.94 157.66 335.23 164.91 C 343.32 152.11 351.11 139.13 359.11 126.28 C 337.48 133.59 316.00 141.33 294.38 148.67 C 297.62 143.83 303.09 141.23 306.79 136.79 C 350.37 93.04 394.12 49.45 437.75 5.76 C 439.54 3.86 441.22 1.87 443.04 0.00 Z" />
</g>
<g id="#859be0ff">
<path fill="#859be0" opacity="1.00" d=" M 490.74 47.51 C 493.52 45.75 495.26 42.89 496.94 40.16 C 497.95 40.24 498.97 40.33 500.00 40.42 L 500.00 93.17 C 474.57 117.17 450.66 142.77 425.39 166.93 C 424.57 165.97 423.76 165.01 422.95 164.05 C 430.73 151.46 438.43 138.83 446.17 126.22 C 429.88 131.80 413.66 137.59 397.38 143.19 C 398.32 140.56 399.03 137.46 401.80 136.15 C 405.61 134.15 407.14 129.76 410.75 127.51 C 413.83 125.53 415.24 121.85 418.31 119.84 C 421.76 117.73 423.31 113.66 426.74 111.52 C 429.83 109.54 431.25 105.86 434.31 103.85 C 437.76 101.72 439.31 97.65 442.75 95.51 C 445.84 93.54 447.24 89.85 450.31 87.84 C 453.76 85.72 455.31 81.65 458.74 79.51 C 461.84 77.54 463.23 73.85 466.30 71.85 C 469.77 69.74 471.31 65.65 474.75 63.51 C 477.84 61.53 479.24 57.85 482.31 55.84 C 485.76 53.72 487.32 49.66 490.74 47.51 Z" />
</g>
<g id="#7596daff">
<path fill="#7596da" opacity="1.00" d=" M 425.39 166.93 C 450.66 142.77 474.57 117.17 500.00 93.17 L 500.00 219.47 C 497.83 221.48 495.50 223.31 493.36 225.36 C 401.84 316.93 310.27 408.44 218.74 500.00 L 132.65 500.00 C 177.04 455.27 221.75 410.86 266.25 366.25 C 270.89 361.58 275.76 357.13 279.90 351.99 C 284.47 359.36 288.99 366.76 293.52 374.15 C 336.68 304.12 379.78 234.07 422.95 164.05 C 423.76 165.01 424.57 165.97 425.39 166.93 Z" />
</g>
<g id="#1a1c33ff">
<path fill="#1a1c33" opacity="1.00" d=" M 140.86 126.27 C 143.79 127.24 146.72 128.26 149.64 129.29 C 169.92 136.25 190.14 143.38 210.39 150.43 C 223.62 154.86 236.65 160.01 250.01 163.96 C 264.93 159.31 279.59 153.74 294.38 148.67 C 316.00 141.33 337.48 133.59 359.11 126.28 C 351.11 139.13 343.32 152.11 335.23 164.91 C 355.94 157.66 376.66 150.43 397.38 143.19 C 413.66 137.59 429.88 131.80 446.17 126.22 C 438.43 138.83 430.73 151.46 422.95 164.05 C 379.78 234.07 336.68 304.12 293.52 374.15 C 288.99 366.76 284.47 359.36 279.90 351.99 C 269.91 335.85 260.03 319.64 250.02 303.51 C 240.95 288.58 231.78 273.72 222.52 258.91 C 217.88 251.25 213.13 243.66 208.48 236.02 C 195.39 214.88 182.39 193.69 169.38 172.51 C 161.59 177.07 153.75 181.54 145.91 186.01 C 159.76 208.86 173.61 231.72 187.44 254.60 C 193.74 265.08 200.10 275.52 206.43 285.99 C 209.93 280.10 213.58 274.29 216.97 268.33 C 226.69 282.66 235.26 297.73 244.47 312.38 C 231.70 332.90 219.14 353.57 206.44 374.14 C 204.95 371.72 203.46 369.30 201.98 366.87 C 194.97 355.62 188.07 344.30 181.09 333.02 C 167.47 310.94 153.90 288.83 140.28 266.74 C 130.65 251.17 121.07 235.57 111.48 219.97 C 102.58 205.66 93.82 191.27 84.95 176.94 C 76.58 163.40 68.27 149.82 59.96 136.24 C 57.87 132.91 55.84 129.55 53.81 126.18 C 55.99 126.93 58.17 127.70 60.35 128.47 C 86.47 137.59 112.59 146.71 138.71 155.80 C 147.35 158.92 156.07 161.81 164.71 164.92 C 159.94 157.40 155.37 149.75 150.66 142.19 C 147.40 136.88 144.11 131.59 140.86 126.27 M 282.22 251.19 L 282.25 250.21 C 282.34 248.76 281.21 247.62 280.61 246.40 C 271.88 232.84 264.38 218.49 255.22 205.23 C 259.23 198.89 263.01 192.41 266.91 186.00 C 261.31 182.67 255.66 179.41 250.00 176.17 C 244.37 179.49 238.69 182.70 233.05 185.99 C 238.64 195.30 244.30 204.56 249.89 213.86 C 256.41 224.74 262.97 235.59 269.59 246.41 C 272.24 250.59 274.32 255.18 277.72 258.84 L 277.40 259.31 C 282.79 268.19 288.17 277.09 293.52 285.99 C 313.71 252.67 333.85 219.33 354.05 186.02 C 346.27 181.50 338.49 177.00 330.72 172.50 C 314.47 198.67 298.36 224.97 282.22 251.19 Z" />
</g>
<g id="#b7adf2ff">
<path fill="#b7adf2" opacity="1.00" d=" M 43.74 151.75 C 49.11 146.54 54.05 140.87 59.96 136.24 C 68.27 149.82 76.58 163.40 84.95 176.94 C 58.32 203.32 31.90 229.91 5.40 256.41 C 3.70 257.94 1.80 259.24 0.00 260.66 L 0.00 194.44 C 2.43 192.40 5.03 190.54 7.28 188.29 C 19.36 176.04 31.59 163.93 43.74 151.75 Z" />
</g>
<g id="#aca9eeff">
<path fill="#aca9ee" opacity="1.00" d=" M 150.66 142.19 C 155.37 149.75 159.94 157.40 164.71 164.92 C 156.07 161.81 147.35 158.92 138.71 155.80 C 143.11 151.65 147.81 147.63 150.66 142.19 Z" />
</g>
<g id="#9fa4e9ff">
<path fill="#9fa4e9" opacity="1.00" d=" M 145.91 186.01 C 153.75 181.54 161.59 177.07 169.38 172.51 C 182.39 193.69 195.39 214.88 208.48 236.02 C 205.34 244.24 197.67 249.25 191.84 255.44 C 190.38 255.13 188.90 254.88 187.44 254.60 C 173.61 231.72 159.76 208.86 145.91 186.01 Z" />
</g>
<g id="#889ce1ff">
<path fill="#889ce1" opacity="1.00" d=" M 282.22 251.19 C 298.36 224.97 314.47 198.67 330.72 172.50 C 338.49 177.00 346.27 181.50 354.05 186.02 C 333.85 219.33 313.71 252.67 293.52 285.99 C 288.17 277.09 282.79 268.19 277.40 259.31 L 277.72 258.84 C 279.27 256.32 280.82 253.79 282.22 251.19 Z" />
<path fill="#889ce1" opacity="1.00" d=" M 179.26 340.24 C 181.48 338.47 181.37 335.56 181.09 333.02 C 188.07 344.30 194.97 355.62 201.98 366.87 C 200.69 373.67 194.67 377.55 190.24 382.24 C 151.08 421.53 111.70 460.61 72.64 500.00 L 20.41 500.00 C 22.01 498.06 23.47 496.02 25.19 494.18 C 76.61 442.94 127.83 391.48 179.26 340.24 Z" />
</g>
<g id="#97a2e7ff">
<path fill="#97a2e7" opacity="1.00" d=" M 233.05 185.99 C 238.69 182.70 244.37 179.49 250.00 176.17 C 255.66 179.41 261.31 182.67 266.91 186.00 C 263.01 192.41 259.23 198.89 255.22 205.23 C 253.39 208.07 251.64 210.97 249.89 213.86 C 244.30 204.56 238.64 195.30 233.05 185.99 Z" />
</g>
<g id="#ada9eeff">
<path fill="#ada9ee" opacity="1.00" d=" M 5.40 256.41 C 31.90 229.91 58.32 203.32 84.95 176.94 C 93.82 191.27 102.58 205.66 111.48 219.97 C 110.51 222.36 109.68 224.93 107.84 226.84 C 73.63 260.96 39.48 295.16 5.33 329.34 C 3.63 330.88 1.76 332.22 0.00 333.68 L 0.00 260.66 C 1.80 259.24 3.70 257.94 5.40 256.41 Z" />
</g>
<g id="#0b0c17ff">
<path fill="#0b0c17" opacity="1.00" d=" M 249.89 213.86 C 251.64 210.97 253.39 208.07 255.22 205.23 C 264.38 218.49 271.88 232.84 280.61 246.40 C 281.21 247.62 282.34 248.76 282.25 250.21 L 282.22 251.19 C 280.82 253.79 279.27 256.32 277.72 258.84 C 274.32 255.18 272.24 250.59 269.59 246.41 C 262.97 235.59 256.41 224.74 249.89 213.86 Z" />
<path fill="#0b0c17" opacity="1.00" d=" M 222.52 258.91 C 231.78 273.72 240.95 288.58 250.02 303.51 C 248.24 306.51 246.38 309.46 244.47 312.38 C 235.26 297.73 226.69 282.66 216.97 268.33 C 218.76 265.15 220.68 262.06 222.52 258.91 Z" />
</g>
<g id="#a2a5eaff">
<path fill="#a2a5ea" opacity="1.00" d=" M 111.48 219.97 C 121.07 235.57 130.65 251.17 140.28 266.74 C 135.48 272.44 129.99 277.48 124.77 282.77 C 86.95 320.62 49.09 358.43 11.29 396.29 C 7.87 400.04 4.06 403.39 0.00 406.44 L 0.00 333.68 C 1.76 332.22 3.63 330.88 5.33 329.34 C 39.48 295.16 73.63 260.96 107.84 226.84 C 109.68 224.93 110.51 222.36 111.48 219.97 Z" />
</g>
<g id="#6891d5ff">
<path fill="#6891d5" opacity="1.00" d=" M 493.36 225.36 C 495.50 223.31 497.83 221.48 500.00 219.47 L 500.00 304.93 C 497.44 307.39 494.70 309.67 492.21 312.20 C 429.78 374.89 366.97 437.21 304.66 500.00 L 218.74 500.00 C 310.27 408.44 401.84 316.93 493.36 225.36 Z" />
</g>
<g id="#93a0e5ff">
<path fill="#93a0e5" opacity="1.00" d=" M 208.48 236.02 C 213.13 243.66 217.88 251.25 222.52 258.91 C 220.68 262.06 218.76 265.15 216.97 268.33 C 213.58 274.29 209.93 280.10 206.43 285.99 C 200.10 275.52 193.74 265.08 187.44 254.60 C 188.90 254.88 190.38 255.13 191.84 255.44 C 197.67 249.25 205.34 244.24 208.48 236.02 Z" />
</g>
<g id="#94a0e5ff">
<path fill="#94a0e5" opacity="1.00" d=" M 124.77 282.77 C 129.99 277.48 135.48 272.44 140.28 266.74 C 153.90 288.83 167.47 310.94 181.09 333.02 C 181.37 335.56 181.48 338.47 179.26 340.24 C 127.83 391.48 76.61 442.94 25.19 494.18 C 23.47 496.02 22.01 498.06 20.41 500.00 L 0.00 500.00 L 0.00 406.44 C 4.06 403.39 7.87 400.04 11.29 396.29 C 49.09 358.43 86.95 320.62 124.77 282.77 Z" />
</g>
<g id="#7f99deff">
<path fill="#7f99de" opacity="1.00" d=" M 244.47 312.38 C 246.38 309.46 248.24 306.51 250.02 303.51 C 260.03 319.64 269.91 335.85 279.90 351.99 C 275.76 357.13 270.89 361.58 266.25 366.25 C 221.75 410.86 177.04 455.27 132.65 500.00 L 72.64 500.00 C 111.70 460.61 151.08 421.53 190.24 382.24 C 194.67 377.55 200.69 373.67 201.98 366.87 C 203.46 369.30 204.95 371.72 206.44 374.14 C 219.14 353.57 231.70 332.90 244.47 312.38 Z" />
</g>
<g id="#5c8dd1ff">
<path fill="#5c8dd1" opacity="1.00" d=" M 492.21 312.20 C 494.70 309.67 497.44 307.39 500.00 304.93 L 500.00 378.03 C 497.83 380.19 495.49 382.16 493.29 384.30 C 460.49 417.16 427.64 449.96 394.81 482.80 C 389.25 488.48 383.33 493.83 378.29 500.00 L 304.66 500.00 C 366.97 437.21 429.78 374.89 492.21 312.20 Z" />
</g>
<g id="#5089cdff">
<path fill="#5089cd" opacity="1.00" d=" M 493.29 384.30 C 495.49 382.16 497.83 380.19 500.00 378.03 L 500.00 500.00 L 378.29 500.00 C 383.33 493.83 389.25 488.48 394.81 482.80 C 427.64 449.96 460.49 417.16 493.29 384.30 Z" />
</g>
</svg>
