<?xml version="1.0" encoding="UTF-8" ?>
<!DOCTYPE svg PUBLIC "-//W3C//DTD SVG 1.1//EN" "http://www.w3.org/Graphics/SVG/1.1/DTD/svg11.dtd">
<svg width="500pt" height="500pt" viewBox="0 0 500 500" version="1.1" xmlns="http://www.w3.org/2000/svg">
<g id="#cfb5fbff">
<path fill="#cfb5fb" opacity="1.00" d=" M 0.00 0.00 L 102.51 0.00 C 70.62 32.60 37.99 64.49 5.95 96.95 C 4.18 98.71 2.04 100.01 0.00 101.42 L 0.00 0.00 Z" />
</g>
<g id="#c3b1f7ff">
<path fill="#c3b1f7" opacity="1.00" d=" M 102.51 0.00 L 188.03 0.00 C 186.41 1.73 184.90 3.54 183.27 5.26 C 145.76 42.75 108.27 80.27 70.76 117.76 C 67.99 120.38 65.30 123.09 62.87 126.03 C 63.50 127.35 64.13 128.68 64.76 130.01 C 61.19 128.76 57.61 127.51 54.00 126.39 C 56.44 130.54 59.06 134.58 61.44 138.76 C 59.55 138.00 58.26 136.40 56.92 134.96 C 41.34 149.32 26.87 164.89 11.67 179.67 C 8.06 182.90 5.40 188.01 0.00 188.28 L 0.00 101.42 C 2.04 100.01 4.18 98.71 5.95 96.95 C 37.99 64.49 70.62 32.60 102.51 0.00 Z" />
</g>
<g id="#b6acf2ff">
<path fill="#b6acf2" opacity="1.00" d=" M 188.03 0.00 L 280.76 0.00 C 278.19 3.32 275.43 6.50 272.31 9.32 C 235.45 46.13 198.64 82.99 161.79 119.81 C 159.05 122.33 156.45 125.01 154.17 127.96 C 154.73 129.10 155.27 130.25 155.81 131.41 C 150.86 129.74 145.95 127.94 140.97 126.38 C 143.71 130.93 146.58 135.41 149.31 139.97 C 147.58 139.13 145.85 138.30 144.13 137.44 C 139.92 142.74 132.63 146.12 131.39 153.28 C 109.16 145.56 86.99 137.70 64.76 130.01 C 64.13 128.68 63.50 127.35 62.87 126.03 C 65.30 123.09 67.99 120.38 70.76 117.76 C 108.27 80.27 145.76 42.75 183.27 5.26 C 184.90 3.54 186.41 1.73 188.03 0.00 Z" />
</g>
<g id="#aba9eeff">
<path fill="#aba9ee" opacity="1.00" d=" M 280.76 0.00 L 334.44 0.00 C 287.84 47.24 240.42 93.69 193.92 141.01 C 194.49 142.44 195.06 143.87 195.64 145.30 C 182.35 140.70 169.12 135.94 155.81 131.41 C 155.27 130.25 154.73 129.10 154.17 127.96 C 156.45 125.01 159.05 122.33 161.79 119.81 C 198.64 82.99 235.45 46.13 272.31 9.32 C 275.43 6.50 278.19 3.32 280.76 0.00 Z" />
</g>
<g id="#a3a6ebff">
<path fill="#a3a6eb" opacity="1.00" d=" M 334.44 0.00 L 393.93 0.00 C 392.35 1.73 390.87 3.56 389.26 5.27 C 343.41 51.07 297.60 96.92 251.76 142.75 C 247.28 147.46 242.28 151.68 238.18 156.74 C 238.62 158.02 239.04 159.30 239.47 160.58 C 224.85 155.53 210.27 150.35 195.64 145.30 C 195.06 143.87 194.49 142.44 193.92 141.01 C 240.42 93.69 287.84 47.24 334.44 0.00 Z" />
<path fill="#a3a6eb" opacity="1.00" d=" M 145.95 186.00 C 153.72 181.57 161.53 177.21 169.19 172.58 C 176.79 184.23 183.86 196.22 191.22 208.03 C 187.95 209.66 185.12 211.99 182.71 214.72 C 178.86 219.08 173.69 222.44 171.28 227.93 C 162.83 213.96 154.39 199.98 145.95 186.00 Z" />
</g>
<g id="#99a2e7ff">
<path fill="#99a2e7" opacity="1.00" d=" M 393.93 0.00 L 473.04 0.00 C 472.19 1.17 471.43 2.39 470.52 3.51 C 430.63 43.29 390.87 83.24 350.95 122.99 C 349.75 124.37 348.74 125.89 347.68 127.36 C 350.49 127.06 353.32 127.02 356.15 127.13 C 323.33 138.83 290.32 150.04 257.45 161.62 C 254.99 162.47 252.59 163.53 250.00 163.94 C 246.35 163.32 242.98 161.69 239.47 160.58 C 239.04 159.30 238.62 158.02 238.18 156.74 C 242.28 151.68 247.28 147.46 251.76 142.75 C 297.60 96.92 343.41 51.07 389.26 5.27 C 390.87 3.56 392.35 1.73 393.93 0.00 Z" />
</g>
<g id="#8c9ee3ff">
<path fill="#8c9ee3" opacity="1.00" d=" M 473.04 0.00 L 500.00 0.00 L 500.00 73.85 C 498.56 74.78 497.02 75.59 495.72 76.71 C 479.26 93.23 462.77 109.74 446.24 126.19 C 409.25 139.11 372.23 151.96 335.25 164.91 C 343.30 152.11 351.12 139.17 359.08 126.32 C 358.34 126.53 356.88 126.93 356.15 127.13 C 353.32 127.02 350.49 127.06 347.68 127.36 C 348.74 125.89 349.75 124.37 350.95 122.99 C 390.87 83.24 430.63 43.29 470.52 3.51 C 471.43 2.39 472.19 1.17 473.04 0.00 Z" />
</g>
<g id="#7d98ddff">
<path fill="#7d98dd" opacity="1.00" d=" M 495.72 76.71 C 497.02 75.59 498.56 74.78 500.00 73.85 L 500.00 146.93 C 493.96 151.50 489.04 157.33 483.58 162.54 C 434.57 211.52 385.63 260.56 336.59 309.49 C 333.57 312.74 332.17 317.84 327.47 319.15 C 366.95 254.77 406.74 190.57 446.24 126.19 C 462.77 109.74 479.26 93.23 495.72 76.71 Z" />
</g>
<g id="#ffffffff">
</g>
<g id="#b7adf2ff">
<path fill="#b7adf2" opacity="1.00" d=" M 11.67 179.67 C 26.87 164.89 41.34 149.32 56.92 134.96 C 58.26 136.40 59.55 138.00 61.44 138.76 C 70.45 153.41 79.51 168.04 88.50 182.70 C 86.65 181.26 84.50 180.27 82.40 179.24 C 57.87 204.09 33.02 228.63 8.41 253.40 C 5.97 256.18 3.17 258.60 0.00 260.51 L 0.00 188.28 C 5.40 188.01 8.06 182.90 11.67 179.67 Z" />
</g>
<g id="#ada9efff">
<path fill="#ada9ef" opacity="1.00" d=" M 144.13 137.44 C 145.85 138.30 147.58 139.13 149.31 139.97 C 154.44 148.29 159.51 156.64 164.74 164.89 C 153.60 161.10 142.52 157.10 131.39 153.28 C 132.63 146.12 139.92 142.74 144.13 137.44 Z" />
</g>
<g id="#7495daff">
<path fill="#7495da" opacity="1.00" d=" M 483.58 162.54 C 489.04 157.33 493.96 151.50 500.00 146.93 L 500.00 208.42 C 498.22 209.83 496.36 211.15 494.71 212.71 C 399.15 308.58 303.15 404.02 207.71 500.00 L 146.84 500.00 C 149.70 496.79 152.30 493.34 155.57 490.52 C 198.06 448.10 240.52 405.51 282.99 363.16 C 284.54 363.41 286.03 363.91 287.54 364.36 C 289.50 367.63 291.51 370.88 293.51 374.14 C 304.89 355.85 316.08 337.44 327.47 319.15 C 332.17 317.84 333.57 312.74 336.59 309.49 C 385.63 260.56 434.57 211.52 483.58 162.54 Z" />
</g>
<g id="#889ce1ff">
<path fill="#889ce1" opacity="1.00" d=" M 282.82 250.47 C 298.52 224.34 314.73 198.52 330.69 172.55 C 338.50 176.98 346.23 181.54 354.03 185.98 C 333.92 219.34 313.71 252.64 293.58 285.99 C 288.11 277.23 282.91 268.30 277.49 259.51 C 279.25 256.49 281.06 253.50 282.82 250.47 Z" />
<path fill="#889ce1" opacity="1.00" d=" M 173.22 346.22 C 176.55 342.95 179.72 337.87 185.16 339.56 C 191.35 349.81 197.74 359.92 203.97 370.15 C 200.60 371.89 197.74 374.41 195.22 377.23 C 154.46 418.24 113.33 458.88 72.69 500.00 L 20.52 500.00 C 22.93 496.32 26.00 493.18 29.22 490.22 C 77.22 442.22 125.22 394.22 173.22 346.22 Z" />
</g>
<g id="#97a2e7ff">
<path fill="#97a2e7" opacity="1.00" d=" M 233.06 185.99 C 238.72 182.75 244.35 179.46 250.00 176.20 C 255.69 179.39 261.30 182.69 266.92 186.01 C 263.10 192.36 259.30 198.71 255.37 204.99 C 253.51 207.86 251.68 210.76 249.89 213.67 C 244.16 204.52 238.64 195.24 233.06 185.99 Z" />
</g>
<g id="#ada9eeff">
<path fill="#ada9ee" opacity="1.00" d=" M 82.40 179.24 C 84.50 180.27 86.65 181.26 88.50 182.70 C 97.48 197.38 106.62 211.95 115.56 226.65 C 114.13 225.88 112.67 225.16 111.23 224.43 C 109.71 225.49 108.16 226.53 106.78 227.77 C 75.72 259.04 44.45 290.12 13.32 321.32 C 8.92 325.42 5.24 330.36 0.00 333.48 L 0.00 260.51 C 3.17 258.60 5.97 256.18 8.41 253.40 C 33.02 228.63 57.87 204.09 82.40 179.24 Z" />
</g>
<g id="#d9d9d9ff">
<path fill="#d9d9d9" opacity="1.00" d=" M 249.89 213.67 C 251.68 210.76 253.51 207.86 255.37 204.99 C 264.65 220.07 273.80 235.23 282.82 250.47 C 281.06 253.50 279.25 256.49 277.49 259.51 C 268.30 244.28 259.19 228.98 249.74 213.92 L 249.89 213.67 Z" />
<path fill="#d9d9d9" opacity="1.00" d=" M 222.40 258.62 C 231.59 273.66 240.91 288.62 250.08 303.67 C 248.29 306.69 246.40 309.65 244.44 312.57 C 235.60 297.57 226.43 282.75 217.09 268.07 C 218.89 264.94 220.72 261.82 222.40 258.62 Z" />
</g>
<g id="#9ba3e8ff">
<path fill="#9ba3e8" opacity="1.00" d=" M 182.71 214.72 C 185.12 211.99 187.95 209.66 191.22 208.03 C 196.56 216.81 202.05 225.50 207.38 234.29 C 200.49 239.31 194.64 245.64 188.95 251.95 C 189.77 254.73 190.41 257.57 191.01 260.41 C 184.28 249.67 177.93 238.71 171.28 227.93 C 173.69 222.44 178.86 219.08 182.71 214.72 Z" />
</g>
<g id="#6b92d6ff">
<path fill="#6b92d6" opacity="1.00" d=" M 494.71 212.71 C 496.36 211.15 498.22 209.83 500.00 208.42 L 500.00 271.56 C 423.87 347.68 347.61 423.67 271.70 500.00 L 207.71 500.00 C 303.15 404.02 399.15 308.58 494.71 212.71 Z" />
</g>
<g id="#a2a5eaff">
<path fill="#a2a5ea" opacity="1.00" d=" M 111.23 224.43 C 112.67 225.16 114.13 225.88 115.56 226.65 C 125.24 242.43 135.08 258.11 144.65 273.95 C 142.75 272.27 140.82 270.64 138.91 268.97 C 135.86 271.55 133.03 274.38 130.27 277.27 C 90.28 317.28 50.27 357.26 10.29 397.28 C 7.19 400.66 3.81 403.76 0.00 406.33 L 0.00 333.48 C 5.24 330.36 8.92 325.42 13.32 321.32 C 44.45 290.12 75.72 259.04 106.78 227.77 C 108.16 226.53 109.71 225.49 111.23 224.43 Z" />
</g>
<g id="#94a0e5ff">
<path fill="#94a0e5" opacity="1.00" d=" M 188.95 251.95 C 194.64 245.64 200.49 239.31 207.38 234.29 C 212.38 242.40 217.39 250.51 222.40 258.62 C 220.72 261.82 218.89 264.94 217.09 268.07 C 213.72 274.14 209.96 279.98 206.48 285.99 C 201.23 277.52 196.12 268.96 191.01 260.41 C 190.41 257.57 189.77 254.73 188.95 251.95 Z" />
<path fill="#94a0e5" opacity="1.00" d=" M 130.27 277.27 C 133.03 274.38 135.86 271.55 138.91 268.97 C 140.82 270.64 142.75 272.27 144.65 273.95 C 158.20 295.79 171.65 317.70 185.16 339.56 C 179.72 337.87 176.55 342.95 173.22 346.22 C 125.22 394.22 77.22 442.22 29.22 490.22 C 26.00 493.18 22.93 496.32 20.52 500.00 L 0.00 500.00 L 0.00 406.33 C 3.81 403.76 7.19 400.66 10.29 397.28 C 50.27 357.26 90.28 317.28 130.27 277.27 Z" />
</g>
<g id="#608ed3ff">
<path fill="#608ed3" opacity="1.00" d=" M 271.70 500.00 C 347.61 423.67 423.87 347.68 500.00 271.56 L 500.00 345.15 C 498.03 346.79 495.96 348.32 494.11 350.09 C 444.24 400.11 394.14 449.92 344.34 500.00 L 271.70 500.00 Z" />
</g>
<g id="#7f99deff">
<path fill="#7f99de" opacity="1.00" d=" M 244.44 312.57 C 246.40 309.65 248.29 306.69 250.08 303.67 C 262.58 323.89 275.06 344.12 287.54 364.36 C 286.03 363.91 284.54 363.41 282.99 363.16 C 240.52 405.51 198.06 448.10 155.57 490.52 C 152.30 493.34 149.70 496.79 146.84 500.00 L 72.69 500.00 C 113.33 458.88 154.46 418.24 195.22 377.23 C 197.74 374.41 200.60 371.89 203.97 370.15 C 204.79 371.47 205.62 372.81 206.46 374.14 C 219.14 353.63 231.62 332.99 244.44 312.57 Z" />
</g>
<g id="#568bcfff">
<path fill="#568bcf" opacity="1.00" d=" M 494.11 350.09 C 495.96 348.32 498.03 346.79 500.00 345.15 L 500.00 417.97 C 497.82 419.43 495.54 420.80 493.69 422.68 C 468.17 448.60 442.12 473.99 416.70 500.00 L 344.34 500.00 C 394.14 449.92 444.24 400.11 494.11 350.09 Z" />
</g>
<g id="#4c87cbff">
<path fill="#4c87cb" opacity="1.00" d=" M 493.69 422.68 C 495.54 420.80 497.82 419.43 500.00 417.97 L 500.00 500.00 L 416.70 500.00 C 442.12 473.99 468.17 448.60 493.69 422.68 Z" />
</g>
</svg>
