<?xml version="1.0" encoding="UTF-8" ?>
<!DOCTYPE svg PUBLIC "-//W3C//DTD SVG 1.1//EN" "http://www.w3.org/Graphics/SVG/1.1/DTD/svg11.dtd">
<svg width="500pt" height="500pt" viewBox="0 0 500 500" version="1.1" xmlns="http://www.w3.org/2000/svg">
<g id="#000000ff">
</g>
<g id="#ffffffff">
<path fill="#ffffff" opacity="1.00" d=" M 132.73 101.82 C 154.93 109.11 176.93 117.05 198.99 124.80 C 194.15 117.19 189.52 109.46 184.78 101.78 C 206.67 108.70 228.12 117.01 249.95 124.09 C 271.86 117.07 293.41 108.73 315.37 101.80 C 310.69 109.49 305.98 117.16 301.23 124.81 C 323.31 117.08 345.32 109.01 367.60 101.87 C 337.36 151.40 306.74 200.69 276.26 250.08 C 267.53 236.08 258.88 222.03 250.26 207.96 C 244.57 199.11 239.44 189.89 233.45 181.24 C 223.28 163.67 212.20 146.59 201.65 129.23 C 197.00 131.94 192.32 134.57 187.66 137.25 C 199.75 157.25 211.85 177.25 223.97 197.23 C 226.13 193.65 228.39 190.12 230.36 186.43 C 236.00 195.19 241.13 204.27 246.94 212.91 C 239.20 225.24 231.71 237.73 223.99 250.07 C 195.06 203.48 166.37 156.74 137.56 110.07 C 135.93 107.33 134.10 104.70 132.73 101.82 M 269.99 175.62 C 264.05 166.91 259.06 157.60 253.30 148.77 C 255.75 145.00 257.97 141.09 260.28 137.23 C 256.79 135.45 253.44 133.40 250.01 131.52 C 246.63 133.39 243.30 135.33 239.94 137.25 C 243.31 142.78 246.62 148.34 250.02 153.85 C 255.53 163.08 261.20 172.21 266.68 181.46 C 269.94 186.67 272.96 192.03 276.31 197.19 C 288.37 177.19 300.50 157.24 312.58 137.26 C 307.90 134.57 303.21 131.90 298.54 129.21 C 289.08 144.71 279.33 160.05 269.99 175.62 Z" />
<path fill="#ffffff" opacity="1.00" d=" M 71.25 322.01 C 199.10 321.99 326.95 322.00 454.80 322.00 C 454.79 338.67 454.79 355.33 454.80 372.00 C 326.95 372.00 199.10 372.01 71.25 371.99 C 71.26 355.33 71.26 338.67 71.25 322.01 M 100.59 325.81 C 102.62 340.10 106.66 354.06 109.61 368.19 C 113.73 368.15 117.85 368.18 121.98 368.16 C 123.38 361.81 124.96 355.50 126.46 349.18 C 128.06 355.49 129.53 361.83 131.00 368.17 C 135.12 368.18 139.24 368.16 143.36 368.18 C 146.33 354.05 150.27 340.08 152.45 325.81 C 148.21 325.82 143.98 325.82 139.74 325.81 C 138.60 332.50 137.57 339.21 136.46 345.91 C 134.83 339.24 133.33 332.53 131.93 325.82 C 128.30 325.81 124.67 325.81 121.04 325.82 C 119.58 332.52 118.14 339.24 116.40 345.88 C 115.44 339.18 114.30 332.51 113.22 325.83 C 109.01 325.80 104.80 325.82 100.59 325.81 M 156.45 368.20 C 166.49 368.16 176.54 368.15 186.58 368.20 C 186.58 364.46 186.58 360.73 186.58 357.00 C 180.66 356.95 174.73 356.99 168.80 356.98 C 168.80 355.65 168.79 354.32 168.80 353.00 C 174.27 353.00 179.75 353.00 185.23 353.00 C 185.23 349.00 185.23 345.00 185.23 341.00 C 179.76 341.00 174.28 341.00 168.80 341.00 C 168.79 339.70 168.79 338.40 168.79 337.10 C 174.46 337.10 180.14 337.09 185.82 337.11 C 185.82 333.34 185.81 329.57 185.82 325.80 C 176.03 325.82 166.24 325.84 156.44 325.79 C 156.46 339.93 156.45 354.06 156.45 368.20 M 190.87 325.83 C 190.88 339.94 190.87 354.05 190.87 368.16 C 199.72 367.70 208.92 369.41 217.50 366.64 C 226.12 363.86 227.75 350.39 219.85 345.82 C 225.50 340.94 224.94 330.18 217.42 327.47 C 208.90 324.58 199.69 326.27 190.87 325.83 M 242.45 368.20 C 246.56 368.15 250.68 368.16 254.80 368.19 C 254.79 364.26 254.79 360.34 254.80 356.42 C 255.40 356.46 256.58 356.53 257.18 356.57 C 259.22 360.37 260.95 364.33 262.91 368.17 C 267.60 368.16 272.30 368.20 277.00 368.14 C 275.34 363.14 272.25 358.79 270.02 354.04 C 277.60 348.48 277.66 335.07 270.67 329.03 C 262.28 323.73 251.79 326.56 242.44 325.79 C 242.46 339.93 242.45 354.06 242.45 368.20 M 292.04 325.82 C 288.14 339.98 283.03 353.85 279.74 368.15 C 283.89 368.19 288.04 368.17 292.19 368.17 C 292.66 366.32 293.14 364.48 293.57 362.63 C 297.02 362.63 300.47 362.63 303.92 362.63 C 304.39 364.48 304.85 366.34 305.34 368.19 C 309.61 368.14 313.88 368.19 318.15 368.16 C 314.09 353.99 309.70 339.91 305.43 325.80 C 300.97 325.84 296.50 325.80 292.04 325.82 M 321.49 368.20 C 325.42 368.14 329.35 368.20 333.28 368.15 C 333.40 361.86 333.43 355.57 333.66 349.28 C 335.72 355.29 337.47 361.41 339.28 367.50 C 342.68 367.51 346.09 367.49 349.49 367.52 C 351.43 361.64 352.83 355.55 355.12 349.81 C 355.44 355.92 355.43 362.05 355.57 368.18 C 359.43 368.16 363.29 368.18 367.16 368.16 C 366.89 354.03 365.79 339.94 365.19 325.82 C 360.47 325.81 355.75 325.81 351.04 325.82 C 348.89 332.45 346.98 339.17 344.56 345.70 L 345.36 346.05 C 345.10 346.19 344.56 346.48 344.29 346.62 C 342.19 339.67 339.88 332.77 337.79 325.81 C 333.08 325.82 328.36 325.82 323.64 325.81 C 322.94 339.94 322.10 354.06 321.49 368.20 M 371.85 325.83 C 371.85 339.94 371.85 354.05 371.85 368.16 C 375.97 368.18 380.08 368.17 384.20 368.17 C 384.23 354.05 384.23 339.93 384.20 325.82 C 380.08 325.81 375.96 325.81 371.85 325.83 M 389.67 325.81 C 389.68 339.93 389.67 354.05 389.67 368.18 C 393.56 368.17 397.45 368.17 401.34 368.18 C 401.38 360.57 401.24 352.97 401.42 345.36 C 405.31 352.94 409.04 360.59 412.91 368.18 C 416.86 368.17 420.81 368.16 424.76 368.19 C 424.75 354.06 424.75 339.93 424.76 325.80 C 420.84 325.83 416.92 325.81 413.00 325.82 C 412.97 332.64 413.06 339.48 412.94 346.31 C 409.58 339.44 406.03 332.66 402.64 325.81 C 398.32 325.82 393.99 325.81 389.67 325.81 Z" />
<path fill="#ffffff" opacity="1.00" d=" M 203.19 337.00 C 205.87 337.46 212.32 335.35 211.46 340.08 C 209.17 341.92 205.88 340.77 203.19 341.12 C 203.18 339.74 203.18 338.37 203.19 337.00 Z" />
<path fill="#ffffff" opacity="1.00" d=" M 254.79 337.25 C 257.16 337.33 259.64 336.93 261.91 337.83 C 264.05 339.39 263.96 343.24 261.55 344.48 C 259.37 345.17 257.04 344.94 254.80 345.02 C 254.79 342.43 254.80 339.84 254.79 337.25 Z" />
<path fill="#ffffff" opacity="1.00" d=" M 203.19 352.57 C 205.84 352.63 208.53 352.34 211.15 352.79 C 213.46 352.78 213.45 356.88 211.17 356.93 C 208.51 357.09 205.84 356.97 203.18 356.99 C 203.18 355.51 203.18 354.04 203.19 352.57 Z" />
</g>
<g id="#d9d9d9ff">
<path fill="#d9d9d9" opacity="1.00" d=" M 250.02 153.85 C 251.10 152.15 252.17 150.44 253.30 148.77 C 259.06 157.60 264.05 166.91 269.99 175.62 C 268.90 177.57 267.73 179.49 266.68 181.46 C 261.20 172.21 255.53 163.08 250.02 153.85 Z" />
<path fill="#d9d9d9" opacity="1.00" d=" M 233.45 181.24 C 239.44 189.89 244.57 199.11 250.26 207.96 C 249.17 209.62 248.11 211.30 246.94 212.91 C 241.13 204.27 236.00 195.19 230.36 186.43 C 231.34 184.67 232.41 182.96 233.45 181.24 Z" />
</g>
<g id="#fefefeff">
<path fill="#fefefe" opacity="1.00" d=" M 298.74 342.53 C 299.67 345.60 300.47 348.71 301.12 351.86 C 299.51 351.85 297.91 351.84 296.32 351.83 C 297.17 348.74 297.91 345.62 298.74 342.53 Z" />
</g>
</svg>
