<?xml version="1.0" encoding="UTF-8" ?>
<!DOCTYPE svg PUBLIC "-//W3C//DTD SVG 1.1//EN" "http://www.w3.org/Graphics/SVG/1.1/DTD/svg11.dtd">
<svg width="500pt" height="500pt" viewBox="0 0 500 500" version="1.1" xmlns="http://www.w3.org/2000/svg">
<g id="#cfb5fbff">
</g>
<g id="#c4b1f7ff">
</g>
<g id="#baaef3ff">
</g>
<g id="#afaaefff">
</g>
<g id="#a5a6ecff">
</g>
<g id="#99a2e7ff">
</g>
<g id="#8d9ee3ff">
</g>
<g id="#819adfff">
</g>
<g id="#7696daff">
</g>
<g id="#6891d6ff">
</g>
<g id="#ffffffff">
<path fill="#ffffff" opacity="1.00" d=" M 28.48 300.36 C 28.63 283.57 28.43 266.77 28.55 249.98 C 40.62 250.01 52.69 250.02 64.76 249.98 C 91.42 249.95 118.09 250.05 144.75 249.99 C 171.05 249.95 197.35 250.05 223.65 249.98 C 250.24 249.95 276.83 250.05 303.42 249.97 C 329.86 249.98 356.30 250.02 382.74 249.99 C 411.62 249.97 440.49 250.04 469.37 249.98 C 471.31 249.97 473.25 249.97 475.20 249.97 C 475.19 268.98 475.18 287.99 475.16 306.99 C 447.30 306.99 419.44 307.03 391.58 307.04 C 369.47 306.93 347.36 307.05 325.25 307.02 C 303.24 306.96 281.24 307.04 259.24 307.02 C 229.98 306.96 200.72 307.04 171.46 307.03 C 147.50 306.94 123.54 307.05 99.57 307.04 C 75.89 306.95 52.22 307.01 28.54 307.07 C 28.50 304.83 28.47 302.59 28.48 300.36 M 86.44 254.47 C 84.84 261.80 83.07 269.08 81.33 276.38 C 79.27 269.25 78.77 261.75 77.34 254.48 C 72.37 254.49 67.40 254.50 62.43 254.48 C 65.30 270.66 69.49 286.59 73.16 302.59 C 77.93 302.50 82.69 302.54 87.46 302.57 C 89.20 295.57 90.84 288.55 92.62 281.56 C 95.07 288.40 96.04 295.66 98.16 302.60 C 102.93 302.53 107.71 302.56 112.48 302.58 C 116.02 286.56 120.20 270.66 123.25 254.55 C 118.24 254.37 113.24 254.53 108.23 254.41 C 106.87 261.76 105.76 269.15 104.46 276.50 C 101.97 269.32 101.06 261.70 98.88 254.41 C 94.74 254.50 90.59 254.49 86.44 254.47 M 127.56 254.49 C 127.62 270.50 127.59 286.52 127.54 302.54 C 139.29 302.57 151.03 302.51 162.78 302.59 C 162.77 298.30 162.74 294.01 162.82 289.72 C 155.93 289.56 149.03 289.63 142.13 289.69 C 142.07 288.13 142.03 286.57 141.99 285.02 C 148.34 284.98 154.70 285.00 161.06 285.00 C 161.12 280.52 161.11 276.04 161.07 271.55 C 154.77 271.56 148.46 271.49 142.16 271.63 C 142.11 270.08 142.02 268.55 141.98 267.01 C 148.63 266.96 155.27 267.04 161.92 266.97 C 161.92 262.79 161.93 258.61 161.85 254.43 C 150.42 254.52 138.99 254.46 127.56 254.49 M 168.02 254.42 C 167.65 270.47 167.66 286.55 167.99 302.61 C 178.44 301.81 189.41 304.21 199.46 300.58 C 209.11 297.05 210.30 282.10 201.51 276.90 C 208.43 271.63 207.22 259.33 198.79 256.33 C 188.91 253.03 178.24 255.11 168.02 254.42 M 228.01 254.42 C 227.62 270.33 227.74 286.28 227.92 302.19 C 232.55 303.05 237.51 302.38 242.26 302.43 C 242.23 298.04 242.24 293.66 242.26 289.27 C 242.93 289.25 244.29 289.20 244.97 289.18 C 247.21 293.60 249.36 298.07 251.53 302.53 C 257.09 302.58 262.64 302.54 268.20 302.59 C 266.30 296.86 262.64 291.94 260.05 286.52 C 267.15 281.56 267.75 271.49 265.19 263.93 C 263.14 258.09 256.87 255.22 251.07 254.74 C 243.40 254.18 235.69 254.68 228.01 254.42 M 286.30 254.57 C 285.25 255.33 285.27 256.86 284.76 257.96 C 280.32 272.84 275.28 287.56 271.22 302.55 C 276.17 302.52 281.11 302.56 286.06 302.52 C 286.59 300.47 287.09 298.41 287.59 296.36 C 291.60 296.33 295.62 296.34 299.64 296.35 C 300.19 298.43 300.73 300.50 301.27 302.59 C 306.18 302.53 311.08 302.56 315.98 302.56 C 311.86 286.34 306.22 270.52 301.47 254.47 C 296.42 254.58 291.35 254.28 286.30 254.57 M 322.32 254.45 C 321.55 270.46 320.51 286.45 319.86 302.47 C 324.42 302.59 328.98 302.52 333.55 302.55 C 333.75 295.62 333.57 288.65 334.38 281.76 C 336.40 288.53 338.50 295.29 340.73 302.00 C 344.56 301.89 348.40 302.11 352.23 301.87 C 354.80 295.35 356.44 288.43 358.76 281.79 C 359.37 288.69 359.33 295.63 359.47 302.56 C 363.97 302.55 368.46 302.53 372.96 302.62 C 372.88 286.55 371.34 270.50 370.77 254.44 C 365.28 254.48 359.79 254.49 354.30 254.43 C 351.59 262.20 349.36 270.15 346.40 277.83 C 343.77 270.05 341.33 262.21 338.71 254.43 C 333.24 254.52 327.78 254.50 322.32 254.45 M 378.59 254.48 C 378.65 270.50 378.64 286.52 378.58 302.54 C 383.41 302.53 388.24 302.60 393.07 302.49 C 393.01 286.51 393.00 270.52 393.07 254.54 C 388.25 254.40 383.42 254.49 378.59 254.48 M 426.57 254.47 C 426.63 262.08 426.61 269.69 426.60 277.30 C 422.21 269.96 418.42 262.26 414.64 254.59 C 409.55 254.36 404.45 254.56 399.35 254.43 C 399.35 270.48 399.36 286.54 399.32 302.59 C 403.89 302.50 408.47 302.59 413.05 302.49 C 412.98 293.98 412.96 285.46 413.07 276.95 C 417.62 285.41 421.88 294.03 426.30 302.56 C 430.95 302.52 435.60 302.65 440.25 302.45 C 440.21 286.49 440.21 270.53 440.24 254.57 C 435.68 254.39 431.13 254.49 426.57 254.47 Z" />
<path fill="#ffffff" opacity="1.00" d=" M 182.04 267.03 C 185.38 267.07 188.98 266.40 192.04 268.10 C 192.12 273.55 185.54 271.33 182.12 271.78 C 182.09 270.19 182.06 268.61 182.04 267.03 Z" />
<path fill="#ffffff" opacity="1.00" d=" M 242.23 267.08 C 245.42 267.34 249.67 266.08 251.85 269.15 C 252.21 270.75 252.04 272.40 252.09 274.03 C 249.39 276.52 245.59 275.95 242.23 276.00 C 242.24 273.03 242.24 270.05 242.23 267.08 Z" />
<path fill="#ffffff" opacity="1.00" d=" M 182.06 285.03 C 185.34 285.04 188.66 284.77 191.92 285.25 C 193.87 285.94 193.94 289.05 191.96 289.83 C 188.67 290.18 185.36 289.95 182.07 289.96 C 182.06 288.31 182.06 286.67 182.06 285.03 Z" />
</g>
<g id="#a2a5ebff">
</g>
<g id="#9aa3e8ff">
</g>
<g id="#94a0e5ff">
</g>
<g id="#8b9de2ff">
</g>
<g id="#839bdfff">
</g>
<g id="#7c98ddff">
</g>
<g id="#7194d9ff">
</g>
<g id="#fefeffff">
<path fill="#fefeff" opacity="1.00" d=" M 293.54 273.74 C 294.84 277.06 295.59 280.55 296.44 284.00 C 294.58 284.00 292.73 283.99 290.88 283.99 C 291.71 280.56 292.54 277.13 293.54 273.74 Z" />
</g>
<g id="#a1a5eaff">
</g>
<g id="#5c8dd1ff">
</g>
<g id="#96a1e6ff">
</g>
<g id="#7f99deff">
</g>
<g id="#7596daff">
</g>
<g id="#5089cdff">
</g>
</svg>
