<?xml version="1.0" encoding="UTF-8" ?>
<!DOCTYPE svg PUBLIC "-//W3C//DTD SVG 1.1//EN" "http://www.w3.org/Graphics/SVG/1.1/DTD/svg11.dtd">
<svg width="500pt" height="500pt" viewBox="0 0 500 500" version="1.1" xmlns="http://www.w3.org/2000/svg">
<g id="#ffffffff">
</g>
<g id="#1a1c33ff">
<path fill="#1a1c33" opacity="1.00" d=" M 71.46 249.00 C 199.18 249.00 326.89 249.00 454.60 249.00 C 454.60 265.67 454.60 282.33 454.60 299.00 C 326.89 298.99 199.17 299.03 71.45 298.98 C 71.48 282.32 71.46 265.66 71.46 249.00 M 100.31 252.65 C 102.54 267.04 106.45 281.11 109.46 295.36 C 113.68 295.31 117.90 295.42 122.12 295.28 C 123.52 289.06 125.01 282.86 126.56 276.68 C 127.87 282.92 129.43 289.12 130.89 295.33 C 135.10 295.36 139.31 295.34 143.52 295.35 C 146.53 281.11 150.37 267.02 152.74 252.65 C 148.34 252.63 143.94 252.64 139.54 252.64 C 138.57 259.23 137.39 265.78 136.41 272.37 C 135.00 265.78 133.46 259.21 131.99 252.63 C 128.37 252.62 124.75 252.70 121.14 252.56 C 119.27 259.06 118.08 265.75 116.49 272.34 C 115.55 265.76 114.38 259.21 113.43 252.64 C 109.05 252.64 104.68 252.62 100.31 252.65 M 156.24 252.64 C 156.32 266.90 156.14 281.16 156.33 295.42 C 166.48 295.26 176.63 295.37 186.78 295.36 C 186.77 291.53 186.78 287.70 186.77 283.86 C 180.84 283.88 174.90 283.87 168.96 283.87 C 168.94 282.58 168.92 281.29 168.91 280.00 C 174.41 279.99 179.92 280.00 185.43 280.00 C 185.43 276.00 185.43 272.00 185.43 268.00 C 179.92 267.99 174.41 268.00 168.91 268.00 C 168.92 266.74 168.94 265.49 168.96 264.24 C 174.63 264.23 180.29 264.24 185.96 264.23 C 185.96 260.37 185.96 256.50 185.96 252.64 C 176.05 252.64 166.15 252.63 156.24 252.64 M 190.73 252.64 C 190.71 266.87 190.74 281.10 190.71 295.33 C 199.74 294.87 209.18 296.65 217.88 293.66 C 226.44 290.66 227.73 277.22 219.96 272.60 C 226.27 267.84 224.71 256.38 216.93 254.06 C 208.44 251.64 199.44 253.00 190.73 252.64 M 242.25 295.34 C 246.47 295.36 250.70 295.33 254.93 295.36 C 254.91 291.45 254.92 287.55 254.93 283.66 C 255.47 283.71 256.54 283.81 257.08 283.86 C 259.17 287.58 260.82 291.54 262.76 295.35 C 267.53 295.34 272.31 295.37 277.09 295.31 C 275.76 290.18 272.43 285.86 270.23 281.07 C 277.91 275.38 277.86 261.66 270.53 255.71 C 262.03 250.67 251.64 253.34 242.28 252.62 C 242.21 266.86 242.28 281.10 242.25 295.34 M 291.97 252.64 C 287.91 266.89 282.87 280.90 279.52 295.33 C 283.80 295.36 288.08 295.34 292.37 295.35 C 292.78 293.49 293.26 291.65 293.76 289.82 C 297.11 289.80 300.47 289.81 303.83 289.80 C 304.25 291.66 304.71 293.52 305.22 295.36 C 309.52 295.32 313.83 295.36 318.13 295.34 C 314.59 280.94 309.72 266.85 305.55 252.61 C 301.02 252.67 296.49 252.62 291.97 252.64 M 323.44 252.64 C 322.84 266.89 321.94 281.11 321.28 295.35 C 325.35 295.34 329.41 295.35 333.48 295.34 C 333.54 289.12 333.78 282.90 333.72 276.68 C 335.54 282.70 337.38 288.71 339.24 294.71 C 342.68 294.71 346.13 294.70 349.58 294.73 C 351.45 288.80 353.21 282.84 355.05 276.90 C 355.19 283.05 355.26 289.19 355.36 295.34 C 359.36 295.35 363.37 295.34 367.38 295.35 C 366.97 281.10 365.98 266.87 365.38 252.63 C 360.56 252.65 355.75 252.62 350.94 252.65 C 348.75 259.53 346.53 266.39 344.36 273.27 C 342.26 266.37 340.03 259.52 337.89 252.64 C 333.07 252.64 328.26 252.63 323.44 252.64 M 371.68 252.65 C 371.69 266.88 371.69 281.11 371.69 295.34 C 375.92 295.35 380.16 295.34 384.39 295.36 C 384.43 281.11 384.42 266.87 384.40 252.63 C 380.16 252.64 375.92 252.62 371.68 252.65 M 389.47 295.35 C 393.49 295.35 397.52 295.35 401.55 295.35 C 401.52 287.81 401.59 280.27 401.51 272.73 C 405.14 280.32 409.03 287.79 412.76 295.35 C 416.80 295.35 420.84 295.33 424.89 295.36 C 424.90 281.11 424.90 266.87 424.89 252.62 C 420.93 252.65 416.96 252.63 413.00 252.64 C 412.91 259.42 413.19 266.21 412.82 272.98 C 409.76 266.07 406.04 259.47 402.77 252.65 C 398.34 252.63 393.90 252.63 389.47 252.64 C 389.46 266.88 389.46 281.11 389.47 295.35 Z" />
<path fill="#1a1c33" opacity="1.00" d=" M 203.35 264.01 C 205.99 264.41 210.35 262.74 211.55 266.00 C 210.39 269.35 206.02 267.59 203.37 268.01 C 203.36 266.68 203.36 265.34 203.35 264.01 Z" />
<path fill="#1a1c33" opacity="1.00" d=" M 255.01 264.43 C 257.24 264.52 259.56 264.21 261.71 264.94 C 263.77 266.22 263.77 269.67 261.90 271.11 C 259.70 272.01 257.26 271.93 254.93 272.04 C 254.90 269.50 254.89 266.96 255.01 264.43 Z" />
<path fill="#1a1c33" opacity="1.00" d=" M 298.83 269.82 C 299.42 272.82 300.27 275.76 301.00 278.74 C 299.50 278.70 298.00 278.68 296.51 278.67 C 297.34 275.73 298.08 272.78 298.83 269.82 Z" />
<path fill="#1a1c33" opacity="1.00" d=" M 203.35 279.73 C 206.31 280.32 210.61 278.51 212.64 281.12 C 212.79 285.87 206.30 283.38 203.36 283.99 C 203.36 282.57 203.36 281.15 203.35 279.73 Z" />
</g>
</svg>
