<svg width="1440pt" height="384pt" viewBox="0 0 1440 384" version="1.1" xmlns="http://www.w3.org/2000/svg">
<g id="#fefefeff">
</g>
<g id="#2f2f34ff">
<path fill="#2f2f34" opacity="1.00" d=" M 976.43 79.29 C 978.84 65.19 990.43 53.61 1004.01 49.74 C 1014.14 49.19 1024.33 49.50 1034.48 49.47 C 1033.23 52.77 1029.69 53.99 1027.39 56.39 C 1024.09 59.25 1022.39 63.66 1022.54 67.98 C 1022.55 121.66 1022.55 175.33 1022.56 229.01 C 1022.81 240.81 1017.19 252.77 1007.51 259.66 C 1001.88 263.73 995.11 267.03 988.00 266.52 C 979.85 266.43 971.70 266.69 963.57 266.39 C 965.71 263.89 968.38 261.95 970.91 259.89 C 974.64 256.78 976.29 251.80 976.27 247.06 C 976.23 207.04 976.28 167.02 976.26 127.00 C 976.36 111.10 976.05 95.19 976.43 79.29 Z" />
<path fill="#2f2f34" opacity="1.00" d=" M 492.75 61.93 C 496.16 64.42 497.53 68.62 500.53 71.50 C 502.43 73.44 504.94 74.75 507.57 75.41 C 513.38 75.95 519.23 75.60 525.05 75.72 C 541.00 77.64 555.49 90.77 557.51 106.95 C 557.71 116.24 557.68 125.54 557.55 134.83 C 552.79 131.66 550.58 125.02 544.58 123.52 C 539.06 123.03 533.50 123.68 527.98 123.19 C 519.70 121.66 511.16 119.03 504.96 113.06 C 498.96 107.42 494.46 99.92 493.31 91.69 C 492.24 87.20 492.70 82.57 492.63 78.00 C 492.70 72.64 492.46 67.28 492.75 61.93 Z" />
<path fill="#2f2f34" opacity="1.00" d=" M 35.70 103.79 C 40.85 96.73 49.41 92.74 57.96 91.91 C 66.49 91.53 74.81 95.37 81.00 101.07 C 87.10 107.07 89.16 115.67 92.43 123.30 C 98.26 137.29 103.00 151.71 109.08 165.60 C 112.70 174.58 115.76 183.76 119.45 192.71 C 122.45 199.85 124.61 207.38 128.52 214.11 C 140.04 184.94 151.07 155.57 162.80 126.48 C 167.08 117.43 168.94 106.69 176.85 99.84 C 187.89 89.06 207.60 89.62 218.09 100.88 C 223.49 105.88 225.90 113.00 228.48 119.68 C 231.02 126.50 234.23 133.04 236.69 139.89 C 241.78 154.53 248.25 168.63 253.59 183.18 C 257.70 193.09 261.09 203.29 265.39 213.13 C 268.98 207.02 271.18 200.25 273.71 193.66 C 277.88 182.77 282.49 172.06 286.43 161.08 C 292.74 144.53 299.75 128.25 305.92 111.65 C 309.46 102.29 317.77 95.11 327.42 92.60 C 334.07 92.16 341.17 91.66 347.18 95.10 C 359.55 100.53 366.79 115.33 363.57 128.42 C 362.11 134.40 359.41 139.96 357.20 145.68 C 347.50 170.85 337.41 195.87 327.80 221.08 C 317.34 246.66 307.83 272.62 297.22 298.14 C 294.67 304.32 292.68 310.98 288.09 316.04 C 282.30 322.52 273.71 326.44 265.01 326.49 C 256.67 326.13 248.54 322.24 243.00 316.00 C 237.26 309.93 235.36 301.54 232.20 294.05 C 223.15 271.40 214.32 248.67 205.43 225.96 C 202.73 219.18 200.59 212.13 196.99 205.74 C 193.46 212.11 191.46 219.15 188.50 225.78 C 183.50 236.95 179.89 248.67 174.96 259.87 C 168.34 276.90 162.20 294.15 154.49 310.73 C 147.40 324.90 128.05 329.90 114.33 322.77 C 107.99 319.52 103.05 313.89 100.40 307.30 C 91.66 285.82 83.41 264.15 74.55 242.71 C 61.03 207.56 46.65 172.74 33.33 137.51 C 31.50 132.87 29.52 128.12 29.54 123.04 C 29.17 116.14 31.67 109.31 35.70 103.79 Z" />
<path fill="#2f2f34" opacity="1.00" d=" M 1312.11 124.05 C 1319.60 122.03 1327.42 123.28 1335.01 121.93 C 1357.33 122.02 1379.67 121.85 1401.99 122.01 C 1407.79 123.45 1414.08 121.47 1419.60 124.09 C 1413.83 126.35 1408.00 129.98 1405.56 135.94 C 1404.89 145.27 1405.40 154.65 1405.24 164.00 C 1405.24 201.66 1405.24 239.33 1405.24 277.00 C 1404.39 282.88 1404.80 288.91 1403.22 294.68 C 1401.63 300.29 1398.73 305.53 1394.81 309.83 C 1392.04 312.69 1388.71 314.91 1385.69 317.46 C 1386.02 316.89 1386.68 315.75 1387.01 315.18 C 1382.52 318.76 1376.82 320.93 1371.05 320.68 C 1362.74 320.64 1354.42 320.89 1346.12 320.52 C 1350.09 315.58 1357.77 312.32 1357.66 305.04 C 1357.82 278.36 1357.70 251.68 1357.71 225.00 C 1357.57 206.55 1358.00 188.09 1357.49 169.65 C 1346.30 169.86 1335.11 169.49 1323.93 169.75 C 1313.38 171.13 1303.49 177.82 1298.62 187.33 C 1293.82 197.61 1295.77 209.28 1295.75 220.23 C 1305.44 220.49 1315.16 219.85 1324.83 220.58 C 1333.40 222.88 1341.93 227.35 1347.03 234.85 C 1353.12 242.86 1354.69 253.25 1354.54 263.06 C 1354.31 268.82 1355.14 274.80 1353.04 280.30 C 1349.43 275.36 1346.11 267.83 1338.91 268.10 C 1315.61 267.97 1292.30 268.06 1269.00 268.06 C 1264.71 267.41 1260.38 267.16 1256.05 267.28 C 1253.92 267.17 1251.50 267.76 1249.73 266.28 C 1247.96 262.40 1249.09 258.02 1248.62 253.93 C 1247.42 246.68 1248.15 239.31 1247.96 232.00 C 1248.17 223.35 1247.39 214.65 1248.67 206.07 C 1248.43 188.71 1252.50 170.86 1262.73 156.58 C 1274.41 140.23 1292.02 127.39 1312.11 124.05 Z" />
<path fill="#2f2f34" opacity="1.00" d=" M 457.44 136.77 C 463.91 128.36 474.69 124.46 484.96 123.56 C 492.32 123.49 499.68 123.43 507.03 123.67 C 506.38 126.84 503.04 127.92 500.97 130.00 C 497.47 132.90 495.37 137.39 495.54 141.95 C 495.59 175.98 495.55 210.02 495.57 244.05 C 496.40 261.60 513.81 275.78 531.03 274.34 C 539.16 272.80 547.27 269.24 552.62 262.71 C 556.69 258.06 559.96 252.18 559.78 245.84 C 559.87 222.56 559.79 199.28 559.82 176.00 C 559.70 166.34 560.00 156.54 562.61 147.19 C 565.76 137.93 573.48 130.94 582.00 126.60 C 588.18 124.91 594.53 123.18 601.00 123.49 C 607.02 123.55 613.03 123.40 619.05 123.69 C 618.07 126.98 614.50 128.08 612.24 130.29 C 608.21 133.59 606.68 138.91 606.67 143.94 C 606.71 158.31 606.70 172.68 606.67 187.06 C 606.89 194.33 609.40 201.53 613.80 207.33 C 618.77 213.77 626.27 218.18 634.30 219.44 C 639.86 219.78 645.45 219.41 651.03 219.57 C 665.45 220.78 679.01 209.53 682.37 195.81 C 683.04 183.54 682.35 171.24 682.72 158.96 C 683.45 154.61 683.76 150.09 685.69 146.05 C 688.36 140.01 693.33 135.47 698.01 130.99 C 703.32 125.98 710.63 122.87 717.98 123.38 C 726.21 123.56 734.45 123.06 742.66 123.68 C 738.22 127.64 731.39 130.52 730.31 137.01 C 729.97 155.68 730.20 174.37 730.15 193.05 C 729.62 200.13 733.93 206.48 738.89 211.12 C 744.32 216.67 752.10 220.23 759.97 219.53 C 766.40 219.06 773.21 220.68 779.30 217.92 C 790.87 213.48 800.09 201.74 799.36 189.02 C 799.33 167.15 799.31 145.29 799.41 123.43 C 854.81 123.52 910.23 123.15 965.62 123.62 C 963.02 127.60 957.88 128.99 955.58 133.20 C 952.91 137.30 953.59 142.38 952.81 146.99 C 952.73 162.32 952.88 177.66 952.74 192.99 C 953.02 205.83 949.08 218.75 941.61 229.20 C 935.03 239.93 926.08 249.22 915.12 255.49 C 907.34 261.13 898.03 264.41 888.55 265.63 C 880.18 265.86 871.79 265.88 863.43 265.62 C 854.30 264.48 845.57 261.08 837.89 256.05 C 839.80 257.56 841.89 258.83 843.83 260.31 C 837.45 257.29 831.66 253.15 826.40 248.47 C 824.15 246.19 820.25 246.85 818.17 249.03 C 801.88 263.32 779.32 268.51 758.10 267.19 C 753.91 266.34 749.58 266.60 745.41 265.66 C 734.70 263.72 724.56 259.23 715.56 253.16 C 712.26 251.00 709.56 247.97 706.06 246.13 C 701.97 247.99 698.95 251.53 695.15 253.88 C 685.64 259.92 674.97 264.32 663.81 266.09 C 654.26 266.80 644.63 268.26 635.08 266.66 C 627.57 266.57 620.25 264.73 613.20 262.29 C 610.46 261.33 607.71 260.32 604.79 260.16 C 600.36 279.69 587.67 296.82 571.25 308.04 C 553.11 320.34 529.78 323.37 508.63 318.68 C 490.27 313.95 474.19 302.04 463.16 286.74 C 455.00 275.51 450.46 261.83 449.47 248.04 C 449.33 218.01 449.44 187.98 449.41 157.95 C 449.31 154.77 449.72 151.56 451.16 148.69 C 453.11 144.65 454.66 140.34 457.44 136.77 M 845.67 169.71 C 845.38 176.82 845.51 183.94 845.52 191.05 C 846.27 209.30 866.11 224.00 883.75 219.20 C 893.22 216.56 901.31 209.34 904.89 200.17 C 906.93 195.39 906.55 190.08 907.24 185.02 C 906.92 179.90 908.37 174.34 905.67 169.66 C 885.67 169.83 865.67 169.62 845.67 169.71 Z" />
<path fill="#2f2f34" opacity="1.00" d=" M 1053.70 157.96 C 1054.34 139.44 1071.10 122.27 1090.00 123.38 C 1097.57 123.55 1105.17 123.10 1112.73 123.67 C 1108.01 128.13 1100.90 131.67 1100.52 139.03 C 1100.25 155.35 1100.50 171.68 1100.41 188.00 C 1100.43 190.97 1100.27 193.96 1100.68 196.92 C 1103.07 207.05 1111.49 215.08 1121.15 218.44 C 1129.81 221.38 1139.05 219.89 1148.00 220.26 C 1155.89 220.51 1164.31 220.26 1171.22 215.94 C 1180.39 210.63 1186.77 200.67 1187.37 190.04 C 1187.47 178.02 1187.17 165.99 1187.50 153.98 C 1189.59 138.66 1202.61 125.51 1217.95 123.44 C 1227.21 123.46 1236.49 123.15 1245.74 123.64 C 1242.07 127.86 1235.77 130.20 1234.44 136.14 C 1233.64 154.69 1235.02 173.33 1233.49 191.86 C 1233.15 230.05 1200.03 264.97 1161.75 266.59 C 1155.87 267.74 1149.83 266.80 1143.97 267.95 C 1132.66 267.03 1121.00 267.44 1109.94 264.30 C 1107.05 263.57 1104.23 262.59 1101.30 262.09 C 1101.14 270.64 1100.96 279.21 1101.47 287.75 C 1099.94 279.44 1101.35 270.94 1100.58 262.57 C 1099.63 271.34 1100.54 280.21 1100.23 289.01 C 1099.29 295.90 1096.88 302.95 1091.89 307.99 C 1089.74 310.23 1087.37 312.24 1084.99 314.22 C 1080.02 318.55 1073.46 320.55 1067.04 321.38 C 1058.33 321.51 1049.61 321.43 1040.89 321.40 C 1041.88 318.58 1044.87 317.55 1047.01 315.80 C 1050.65 312.98 1053.82 308.78 1053.65 303.97 C 1053.76 255.30 1053.64 206.63 1053.70 157.96 Z" />
<path fill="#2f2f34" opacity="1.00" d=" M 638.58 285.25 C 642.57 288.04 643.49 293.47 647.54 296.17 C 649.79 297.46 652.27 298.58 654.92 298.47 C 681.30 298.51 707.68 298.45 734.05 298.50 C 742.76 299.44 751.60 302.81 757.57 309.46 C 763.90 315.64 767.68 324.17 768.42 332.95 C 768.32 341.69 768.60 350.43 768.28 359.17 C 763.32 354.70 760.24 346.63 752.60 346.26 C 729.07 346.10 705.53 346.23 682.00 346.20 C 675.07 346.15 667.86 346.11 661.42 343.23 C 648.94 338.45 640.05 326.14 638.46 313.01 C 638.44 303.76 638.17 294.50 638.58 285.25 Z" />
<path fill="#2f2f34" opacity="1.00" d=" M 1148.64 287.75 C 1153.48 290.41 1154.87 297.50 1160.75 298.72 C 1165.82 298.76 1170.80 299.85 1175.89 299.71 C 1185.08 299.81 1193.83 303.66 1201.01 309.23 C 1208.91 316.53 1213.96 327.21 1213.44 338.05 C 1213.46 346.12 1213.63 354.20 1213.20 362.26 C 1209.14 356.37 1205.09 348.22 1196.90 348.03 C 1188.42 346.34 1179.13 349.41 1171.29 344.88 C 1161.29 340.29 1152.78 331.75 1149.72 321.01 C 1148.10 316.17 1148.59 311.02 1148.54 306.00 C 1148.58 299.92 1148.43 293.83 1148.64 287.75 Z" />
</g>
</svg>
