<svg width="681pt" height="681pt" viewBox="0 0 681 681" version="1.1" xmlns="http://www.w3.org/2000/svg">
<g id="#fefefeff">
</g>
<g id="#2f3035ff">
<path fill="#2f3035" opacity="1.00" d=" M 382.50 317.57 C 386.00 301.36 404.28 299.50 417.89 301.48 C 414.23 303.60 409.53 306.12 409.57 311.01 C 409.14 344.36 410.07 377.77 409.13 411.09 C 406.94 428.20 387.75 431.45 373.65 429.30 C 376.57 426.87 380.73 424.92 381.67 420.92 C 382.58 386.51 380.97 351.95 382.50 317.57 Z" />
<path fill="#2f3035" opacity="1.00" d=" M 97.46 308.12 C 101.24 318.79 112.47 316.03 121.07 317.93 C 136.19 322.43 136.91 339.96 135.56 352.96 C 131.06 339.82 115.92 347.97 107.14 340.86 C 95.68 333.96 97.15 319.58 97.46 308.12 Z" />
<path fill="#2f3035" opacity="1.00" d=" M 72.05 362.00 C 74.84 346.25 93.35 342.31 106.68 345.61 C 102.83 347.76 98.54 350.96 99.11 355.95 C 99.49 377.10 98.48 398.31 99.59 419.41 C 103.47 437.02 130.68 438.27 136.12 421.02 C 139.28 400.96 135.36 380.21 138.19 360.08 C 142.03 345.37 159.86 342.70 172.60 345.58 C 158.87 351.85 166.69 369.35 164.60 381.00 C 162.54 403.56 197.91 409.57 207.49 391.56 C 213.02 379.49 204.54 363.89 214.22 353.23 C 221.33 342.52 234.91 344.53 245.96 344.75 C 230.41 350.86 239.02 370.40 236.76 383.00 C 235.20 405.21 272.16 408.76 277.39 388.36 C 278.11 373.84 277.53 359.22 277.75 344.66 C 310.89 344.74 344.03 344.55 377.17 344.77 C 360.85 353.92 372.41 376.07 368.10 390.98 C 363.75 425.54 316.56 442.40 291.97 417.03 C 272.92 433.44 241.95 433.79 223.01 417.19 C 206.78 430.72 182.93 432.88 163.51 424.96 C 159.01 443.70 142.33 459.17 122.94 460.90 C 97.47 464.53 72.24 442.60 71.68 416.98 C 71.83 398.66 71.09 380.26 72.05 362.00 M 305.26 372.44 C 302.70 384.89 307.95 401.67 322.99 401.56 C 338.31 402.42 343.73 384.97 341.31 372.52 C 329.29 372.42 317.28 372.50 305.26 372.44 Z" />
<path fill="#2f3035" opacity="1.00" d=" M 428.08 362.93 C 430.14 345.62 449.65 342.42 463.81 344.83 C 449.90 350.53 457.00 367.58 455.31 379.00 C 452.95 389.64 460.72 401.41 471.99 401.54 C 482.14 400.84 494.86 404.51 502.02 395.02 C 511.74 383.56 501.59 366.81 509.66 354.62 C 516.35 342.82 531.22 344.24 542.78 344.83 C 527.86 350.00 535.74 368.35 533.76 380.00 C 535.69 403.34 517.47 426.37 494.02 428.83 C 481.16 429.68 467.77 430.44 455.41 426.09 C 455.03 435.90 457.14 447.54 448.97 454.95 C 441.70 463.40 429.84 461.18 420.00 461.51 C 420.18 461.16 420.56 460.46 420.75 460.10 C 424.16 458.27 427.94 455.36 427.75 451.05 C 428.08 421.68 427.41 392.28 428.08 362.93 Z" />
<path fill="#2f3035" opacity="1.00" d=" M 543.87 381.00 C 547.69 361.75 565.28 345.85 584.99 344.67 C 604.46 344.65 623.94 344.62 643.42 344.73 C 639.64 346.66 635.00 349.18 634.67 353.96 C 633.91 383.96 635.30 414.08 634.00 444.05 C 631.17 460.87 612.09 463.29 598.18 461.40 C 602.29 458.84 607.50 455.66 607.16 450.07 C 607.15 424.37 607.32 398.65 607.08 372.95 C 596.52 372.63 582.70 369.37 574.67 378.66 C 568.82 384.82 570.46 393.86 570.45 401.56 C 581.67 400.77 595.46 401.05 601.68 412.27 C 606.25 419.89 604.47 429.19 604.39 437.62 C 602.10 433.85 599.07 429.07 594.02 429.35 C 577.12 429.37 560.22 429.25 543.32 429.40 C 542.73 413.34 542.00 397.00 543.87 381.00 Z" />
<path fill="#2f3035" opacity="1.00" d=" M 183.22 439.03 C 185.16 441.89 186.45 445.60 189.69 447.26 C 208.41 449.48 227.94 445.19 246.36 449.69 C 260.78 455.02 260.50 472.06 259.49 484.76 C 257.60 480.79 254.90 476.57 250.19 475.76 C 233.13 475.16 215.90 476.51 198.93 475.08 C 182.90 471.03 181.51 452.62 183.22 439.03 Z" />
<path fill="#2f3035" opacity="1.00" d=" M 483.71 440.21 C 486.33 448.50 494.46 449.66 501.99 449.15 C 520.41 450.34 524.26 470.99 521.55 485.82 C 518.05 471.82 502.20 480.17 493.59 473.42 C 481.70 466.66 483.32 451.82 483.71 440.21 Z" />
</g>
</svg>
